<?xml version="1.0" encoding="iso-8859-1"?>
<svg viewBox="0 0 512.002 512.002" xml:space="preserve">
<circle style="fill:#273B7A;" cx="256.001" cy="256" r="256"/>
<path style="fill:#121149;" d="M505.16,197.02l-89.421-89.421l-260.587,98.695l-37.721,48.257l41.456,49.431l-92.886,66.698
	l135.523,135.492c17.558,3.806,35.78,5.829,54.475,5.829c141.384,0,256-114.616,256-256
	C512.001,235.699,509.627,215.955,505.16,197.02z"/>
<circle style="fill:#FFEDB5;" cx="106.404" cy="327.818" r="58.889"/>
<g>
	<circle style="fill:#386895;" cx="82.31" cy="320.095" r="5.354"/>
	<circle style="fill:#386895;" cx="131.828" cy="320.095" r="5.354"/>
	<path style="fill:#386895;" d="M90.48,351.994c3.763,4.625,9.497,7.585,15.925,7.585s12.16-2.96,15.925-7.585H90.48z"/>
</g>
<circle style="fill:#FFEDB5;" cx="256.001" cy="327.818" r="58.889"/>
<path style="fill:#FEE187;" d="M314.896,327.825c0-31.949-25.445-57.939-57.172-58.852v117.705
	C289.453,385.764,314.896,359.774,314.896,327.825z"/>
<g>
	<circle style="fill:#386895;" cx="231.901" cy="320.095" r="5.354"/>
	<circle style="fill:#386895;" cx="281.428" cy="320.095" r="5.354"/>
	<path style="fill:#386895;" d="M240.075,351.994c3.763,4.625,9.497,7.585,15.925,7.585c6.428,0,12.16-2.96,15.925-7.585H240.075z"
		/>
</g>
<circle style="fill:#FEE187;" cx="405.601" cy="327.818" r="58.889"/>
<g>
	<circle style="fill:#386895;" cx="381.501" cy="320.095" r="5.354"/>
	<circle style="fill:#386895;" cx="431.029" cy="320.095" r="5.354"/>
	<path style="fill:#386895;" d="M389.672,351.994c3.763,4.625,9.497,7.585,15.925,7.585c6.428,0,12.16-2.96,15.925-7.585H389.672z"
		/>
</g>
<path style="fill:#FEE187;" d="M405.119,103.04H106.883c-8.092,0-14.653,6.559-14.653,14.653v84.471
	c0,8.092,6.559,14.653,14.653,14.653h7.758v32.122c0,6.277,7.589,9.419,12.028,4.982l37.104-37.104h56.889v32.122
	c0,6.277,7.589,9.419,12.028,4.982l37.104-37.104h72.404l37.104,37.104c4.439,4.439,12.028,1.295,12.028-4.982v-32.122h13.791
	c8.092,0,14.653-6.561,14.653-14.653v-84.471C419.772,109.601,413.211,103.04,405.119,103.04z"/>
<path style="fill:#FFC61B;" d="M405.119,103.04H257.725v125.845l12.067-12.067h72.404l37.104,37.104
	c4.439,4.439,12.028,1.295,12.028-4.982v-32.122h13.791c8.092,0,14.653-6.561,14.653-14.653v-84.471
	C419.772,109.601,413.212,103.04,405.119,103.04z"/>
<g>
	<rect x="128.001" y="137.051" style="fill:#366695;" width="256" height="10.343"/>
	<rect x="128.001" y="165.495" style="fill:#366695;" width="256" height="10.343"/>
</g>
</svg>
